<?xml version="1.0" encoding="UTF-8" standalone="no"?>
<svg width="158px" height="994px" viewBox="0 0 158 994" version="1.1" xmlns="http://www.w3.org/2000/svg" xmlns:xlink="http://www.w3.org/1999/xlink" xmlns:sketch="http://www.bohemiancoding.com/sketch/ns">
    <!-- Generator: Sketch 3.4.2 (15855) - http://www.bohemiancoding.com/sketch -->
    <title>Group</title>
    <desc>Created with Sketch.</desc>
    <defs></defs>
    <g id="Page-1" stroke="none" stroke-width="1" fill="none" fill-rule="evenodd" sketch:type="MSPage">
        <g id="Letter-Copy" sketch:type="MSArtboardGroup" transform="translate(-813.000000, -183.000000)">
            <g id="Group" sketch:type="MSLayerGroup" transform="translate(891.760516, 679.832646) rotate(-270.000000) translate(-891.760516, -679.832646) translate(395.260516, 601.332646)">
                <path d="M732.573368,3.37913486 L674.574917,156.43257 L708.514752,156.43257 L720.54406,122.349242 L777.898084,122.349242 L789.497774,156.43257 L824.511654,156.43257 L767.15763,3.37913486 L732.573368,3.37913486 L732.573368,3.37913486 Z M729.96906,97.7608254 L749.946304,41.5983602 L750.375922,41.5983602 L769.708739,97.7608254 L729.96906,97.7608254 L729.96906,97.7608254 Z" id="Path-Copy-66" fill="#FFFFFF" sketch:type="MSShapeGroup"></path>
                <path d="M668.336591,156.43257 L689.874584,156.43257 L689.874584,73.9972776 L625.260606,73.9972776 L625.260606,98.9841406 L632.319465,98.9841406 L659.290634,98.9841406 C659.290634,98.9841406 633.875858,131.872833 622.676046,131.872833 C615.065917,131.872833 608.604584,130.4135 603.291853,127.494793 C597.979122,124.576084 593.671566,120.696397 590.369057,115.855613 C587.066548,111.014828 584.661497,105.569028 583.153829,99.5180482 C581.646162,93.4670684 580.89234,87.2382119 580.89234,80.8312921 C580.89234,74.1396193 581.646162,67.6616092 583.153829,61.3970648 C584.661497,55.1325214 587.066548,49.5443466 590.369057,44.6323751 C593.671566,39.7204027 597.979122,35.8051213 603.291853,32.8864138 C608.604584,29.9677052 615.065917,28.5083733 622.676046,28.5083733 C630.860525,28.5083733 637.824406,30.6439809 643.5679,34.9152615 C649.311393,39.1865411 653.188193,45.593365 655.198416,54.1359252 L687.505405,54.1359252 C686.643881,45.4509896 684.274725,37.7628003 680.397867,31.0711286 C676.521009,24.3794569 671.603217,18.755689 665.644342,14.1996566 C659.685467,9.64362522 653.008756,6.19105808 645.614009,3.84185417 C638.21926,1.49265026 630.57335,0.318066158 622.676046,0.318066158 C610.901884,0.318066158 600.312477,2.38248762 590.907506,6.51139076 C581.502536,10.6402949 573.569455,16.33525 567.108025,23.5964253 C560.646595,30.8576017 555.692905,39.3644402 552.246809,49.1171959 C548.800713,58.8699526 547.077691,69.4412115 547.077691,80.8312921 C547.077691,91.9366197 548.800713,102.294318 552.246809,111.904698 C555.692905,121.515079 560.646595,129.879543 567.108025,136.998343 C573.569455,144.117143 566.094473,155.779319 566.094473,155.779319 L632.319467,155.779319 C638.943565,155.779319 662.305924,131.144246 668.336592,123.455941 L668.336591,156.43257 L668.336591,156.43257 Z" id="Path-Copy-69" fill="#FFFFFF" sketch:type="MSShapeGroup"></path>
                <path d="M863.27081,3.37913486 L863.27081,156.43257 L894.849526,156.43257 L894.849526,53.9682255 L895.279168,53.9682255 L959.081063,156.43257 L992.807991,156.43257 L992.807991,3.37913486 L961.229275,3.37913486 L961.229275,106.05784 L960.799633,106.05784 L896.782916,3.37913486 L863.27081,3.37913486 L863.27081,3.37913486 Z" id="Path-Copy-72" fill="#FFFFFF" sketch:type="MSShapeGroup"></path>
                <path d="M813.291898,3.37913486 L813.291898,156.43257 L846.951165,156.43257 L846.951165,3.37913486 L813.291898,3.37913486 L813.291898,3.37913486 Z" id="Path-Copy-78" fill="#FFFFFF" sketch:type="MSShapeGroup"></path>
                <path d="M262,0 L262,153.053435 L391.537181,153.053429 L374.160242,124.757836 L295.730218,124.757843 L295.730218,0 L262,0 L262,0 Z" id="Path-Copy-80" fill="#FFFFFF" sketch:type="MSShapeGroup"></path>
                <path d="M212,0 L212,153.053435 L245.659267,153.053435 L245.659267,0 L212,0 L212,0 Z" id="Path-Copy-81" fill="#FFFFFF" sketch:type="MSShapeGroup"></path>
                <path d="M498.998451,3.37913486 L441,156.43257 L474.939834,156.43257 L486.969143,122.349242 L544.323167,122.349242 L555.922857,156.43257 L590.936737,156.43257 L533.582713,3.37913486 L498.998451,3.37913486 L498.998451,3.37913486 Z M494.70227,97.369933 L514.679514,41.2074678 L515.109132,41.2074678 L534.441949,97.369933 L494.70227,97.369933 L494.70227,97.369933 Z" id="Path-Copy-79" fill="#FFD700" sketch:type="MSShapeGroup"></path>
                <path d="M131.998451,0 L74,153.053435 L107.939835,153.053435 L119.969143,118.970107 L177.323167,118.970107 L188.922857,153.053435 L223.936737,153.053435 L166.582713,0 L131.998451,0 L131.998451,0 Z M127.70227,93.9907979 L147.679514,37.828333 L148.109132,37.828333 L167.441949,93.9907979 L127.70227,93.9907979 L127.70227,93.9907979 Z" id="Path-Copy-82" fill="#FFFFFF" sketch:type="MSShapeGroup"></path>
                <path d="M-1.42108547e-14,0 L-1.42108547e-14,153.053435 L33.813686,153.053435 L33.813686,89.8170719 L88.6959968,89.8170737 L98.2104527,63.6650844 L33.813686,63.6650844 L33.813686,28.295593 L108.117647,28.295593 L108.117647,0 L-1.42108547e-14,0 L-1.42108547e-14,0 Z" id="Path-Copy-83" fill="#FFFFFF" sketch:type="MSShapeGroup"></path>
            </g>
        </g>
    </g>
</svg>