<?xml version="1.0" encoding="UTF-8" standalone="no"?>
<svg width="901px" height="786px" viewBox="0 0 901 786" version="1.1" xmlns="http://www.w3.org/2000/svg" xmlns:xlink="http://www.w3.org/1999/xlink" xmlns:sketch="http://www.bohemiancoding.com/sketch/ns">
    <!-- Generator: Sketch 3.4.2 (15855) - http://www.bohemiancoding.com/sketch -->
    <title>Group Copy 3 + Group</title>
    <desc>Created with Sketch.</desc>
    <defs></defs>
    <g id="Page-1" stroke="none" stroke-width="1" fill="none" fill-rule="evenodd" sketch:type="MSPage">
        <g id="Group-Copy-3-+-Group" sketch:type="MSLayerGroup">
            <g id="Group-Copy-3" sketch:type="MSShapeGroup">
                <path d="M596.5,65 C611.135546,65 623,54.7025492 623,42 C623,29.2974508 611.135546,19 596.5,19 C581.864454,19 570,29.2974508 570,42 C570,54.7025492 581.864454,65 596.5,65 Z" id="Oval-2" fill="#045ECD"></path>
                <path d="M596.5,227 C611.135546,227 623,216.702549 623,204 C623,191.297451 611.135546,181 596.5,181 C581.864454,181 570,191.297451 570,204 C570,216.702549 581.864454,227 596.5,227 Z" id="Oval-2" fill="#045ECD"></path>
                <path d="M0,0 L901,0 L901,786 L0,0 Z" id="Rectangle-5-Copy" fill="#0658BD"></path>
                <path d="M140,0 L901,0 L901,664 L140,0 Z" id="Rectangle-5-Copy" fill="#004BA9"></path>
                <path d="M140,0 L901,0 L901,664 L140,0 Z" id="Rectangle-5-Copy" fill="#054FAA"></path>
                <path d="M233,0 L901,0 L901,583 L233,0 Z" id="Rectangle-5-Copy" fill="#02317B"></path>
            </g>
            <g id="Group" transform="translate(357.008000, 0.000000)" sketch:type="MSShapeGroup">
                <path d="M285.862464,167 L229,317 L262.275072,317 L274.068768,283.596639 L330.299427,283.596639 L341.67192,317 L376,317 L319.769341,167 L285.862464,167 Z M283.309165,259.498764 L302.895125,204.456747 L303.316328,204.456747 L322.270483,259.498764 L283.309165,259.498764 Z" id="Path-Copy-66" fill="#FFFFFF"></path>
                <path d="M222.883861,317 L244,317 L244,236.209302 L180.651584,236.209302 L180.651584,260.697674 L187.572185,260.697674 L214.015083,260.697674 C214.015083,260.697674 189.098094,292.930233 178.117647,292.930233 C170.656574,292.930233 164.321796,291.500014 159.113122,288.639535 C153.904449,285.779055 149.681263,281.976768 146.443439,277.232558 C143.205615,272.488348 140.84767,267.151192 139.369532,261.22093 C137.891395,255.290668 137.152338,249.186078 137.152338,242.906977 C137.152338,236.348804 137.891395,230.000031 139.369532,223.860465 C140.84767,217.7209 143.205615,212.24421 146.443439,207.430233 C149.681263,202.616255 153.904449,198.779084 159.113122,195.918605 C164.321796,193.058125 170.656574,191.627907 178.117647,191.627907 C186.14182,191.627907 192.969303,193.720909 198.600302,197.906977 C204.2313,202.093044 208.032167,208.372051 210.003017,216.744186 L241.677225,216.744186 C240.832575,208.232516 238.509823,200.697707 234.708899,194.139535 C230.907975,187.581363 226.086505,182.06979 220.244344,177.604651 C214.402183,173.139513 207.856245,169.755825 200.606335,167.453488 C193.356424,165.151151 185.86027,164 178.117647,164 C166.5741,164 156.192102,166.023236 146.971342,170.069767 C137.750582,174.116299 129.972882,179.697639 123.638009,186.813953 C117.303136,193.930268 112.446472,202.267394 109.067873,211.825581 C105.689274,221.383769 104,231.74413 104,242.906977 C104,253.790752 105.689274,263.941813 109.067873,273.360465 C112.446472,282.779117 117.303136,290.976709 123.638009,297.953488 C129.972882,304.930267 122.644309,316.359781 122.644309,316.359781 L187.572187,316.359781 C194.066542,316.359781 216.971314,292.216181 222.883862,284.681259 L222.883861,317 Z" id="Path-Copy-69" fill="#FFFFFF"></path>
                <path d="M414,167 L414,317 L444.960199,317 L444.960199,216.579832 L445.381426,216.579832 L507.933665,317 L541,317 L541,167 L510.039801,167 L510.039801,267.630252 L509.618574,267.630252 L446.855721,167 L414,167 Z" id="Path-Copy-72" fill="#FFFFFF"></path>
                <path d="M365,167 L365,317 L398,317 L398,167 L365,167 Z" id="Path-Copy-78" fill="#FFFFFF"></path>
                <path d="M414,1 L414,151 L541,150.999994 L523.963415,123.268902 L447.069561,123.268908 L447.069561,1 L414,1 Z" id="Path-Copy-80" fill="#FFFFFF"></path>
                <path d="M365,1 L365,151 L398,151 L398,1 L365,1 Z" id="Path-Copy-81" fill="#FFFFFF"></path>
                <path d="M56.8624642,167 L0,317 L33.2750716,317 L45.0687679,283.596639 L101.299427,283.596639 L112.67192,317 L147,317 L90.769341,167 L56.8624642,167 Z M52.6504298,259.11567 L72.2363897,204.073653 L72.6575931,204.073653 L91.6117479,259.11567 L52.6504298,259.11567 Z" id="Path-Copy-79" fill="#FFD700"></path>
                <path d="M285.862464,1 L229,151 L262.275072,151 L274.068768,117.596639 L330.299427,117.596639 L341.67192,151 L376,151 L319.769341,1 L285.862464,1 Z M281.65043,93.1156698 L301.23639,38.073653 L301.657593,38.073653 L320.611748,93.1156698 L281.65043,93.1156698 Z" id="Path-Copy-82" fill="#FFFFFF"></path>
                <path d="M157,1 L157,151 L190.151394,151 L190.151394,89.0252101 L243.958752,89.0252119 L253.286853,63.394958 L190.151394,63.394958 L190.151394,28.7310924 L263,28.7310924 L263,1 L157,1 Z" id="Path-Copy-83" fill="#FFFFFF"></path>
            </g>
        </g>
    </g>
</svg>