<?xml version="1.0" encoding="UTF-8" standalone="no"?>
<svg width="919px" height="802px" viewBox="0 0 919 802" version="1.1" xmlns="http://www.w3.org/2000/svg" xmlns:xlink="http://www.w3.org/1999/xlink" xmlns:sketch="http://www.bohemiancoding.com/sketch/ns">
    <!-- Generator: Sketch 3.4.2 (15855) - http://www.bohemiancoding.com/sketch -->
    <title>Group-Copy-3</title>
    <desc>Created with Sketch.</desc>
    <defs></defs>
    <g id="Page-1" stroke="none" stroke-width="1" fill="none" fill-rule="evenodd" sketch:type="MSPage">
        <g id="Letter-Copy" sketch:type="MSArtboardGroup" transform="translate(-106.000000, -1390.000000)">
            <g id="Group-Copy-3" sketch:type="MSLayerGroup" transform="translate(106.000000, 1390.000000)">
                <path d="M608.416759,66.3231552 C623.344691,66.3231552 635.446171,55.8160871 635.446171,42.8549618 C635.446171,29.8938366 623.344691,19.3867684 608.416759,19.3867684 C593.488827,19.3867684 581.387347,29.8938366 581.387347,42.8549618 C581.387347,55.8160871 593.488827,66.3231552 608.416759,66.3231552 L608.416759,66.3231552 Z" id="Oval-2" fill="#045ECD" sketch:type="MSShapeGroup"></path>
                <path d="M608.416759,231.620865 C623.344691,231.620865 635.446171,221.113797 635.446171,208.152672 C635.446171,195.191547 623.344691,184.684478 608.416759,184.684478 C593.488827,184.684478 581.387347,195.191547 581.387347,208.152672 C581.387347,221.113797 593.488827,231.620865 608.416759,231.620865 L608.416759,231.620865 Z" id="Oval-2" fill="#045ECD" sketch:type="MSShapeGroup"></path>
                <path d="M919,0 L919,802 L0,0 L919,0 Z" id="Rectangle-5-Copy" fill="#FFC428" sketch:type="MSShapeGroup"></path>
                <path d="M142.796892,0 L919,0 L919,677.516539 L142.796892,0 L142.796892,0 Z" id="Rectangle-5-Copy" fill="#004BA9" sketch:type="MSShapeGroup"></path>
                <path d="M142.796892,0 L919,0 L919,677.516539 L142.796892,0 L142.796892,0 Z" id="Rectangle-5-Copy" fill="#E11CCD" sketch:type="MSShapeGroup"></path>
                <path d="M458,0 L919,0 L919,402.489096 L458,0 L458,0 Z" id="Rectangle-5-Copy" fill="#FF1FE9" sketch:type="MSShapeGroup"></path>
            </g>
        </g>
    </g>
</svg>